<svg xmlns="http://www.w3.org/2000/svg" width="1150" height="750" viewBox="0 0 1150 750">
<rect width="100%" height="100%" fill="#ffffff"/>
<text x="30" y="34" font-family="Arial, sans-serif" font-size="22" font-weight="700">Bridge + Chip Risk Ranking</text>
<text x="30" y="55" font-family="Arial, sans-serif" font-size="12" fill="#555">Orange marker = original bad-chip label; bar length = risk_score.</text>
<text x="30" y="88" font-family="Arial, sans-serif" font-size="15" font-weight="700">21200697</text>
<text x="56" y="112" font-family="Arial, sans-serif" font-size="9" fill="#333"> 1. U5 U_L</text>
<rect x="245" y="104" width="519.7" height="10" rx="1" fill="#4c78a8" opacity="0.82"/>
<text x="975" y="112" font-family="Arial, sans-serif" font-size="9" fill="#333">0.722</text>
<text x="56" y="119" font-family="Arial, sans-serif" font-size="9" fill="#333"> 2. W5 W_L</text>
<rect x="245" y="111" width="461.8" height="10" rx="1" fill="#4c78a8" opacity="0.82"/>
<text x="975" y="119" font-family="Arial, sans-serif" font-size="9" fill="#333">0.641</text>
<text x="56" y="126" font-family="Arial, sans-serif" font-size="9" fill="#333"> 3. V4 V_L</text>
<rect x="245" y="118" width="448.8" height="10" rx="1" fill="#d55e00" opacity="0.82"/>
<text x="975" y="126" font-family="Arial, sans-serif" font-size="9" fill="#333">0.623</text>
<text x="56" y="133" font-family="Arial, sans-serif" font-size="9" fill="#333"> 4. W1 W_H</text>
<rect x="245" y="125" width="420.5" height="10" rx="1" fill="#4c78a8" opacity="0.82"/>
<text x="975" y="133" font-family="Arial, sans-serif" font-size="9" fill="#333">0.584</text>
<text x="56" y="140" font-family="Arial, sans-serif" font-size="9" fill="#333"> 5. U1 U_H</text>
<rect x="245" y="132" width="419.0" height="10" rx="1" fill="#4c78a8" opacity="0.82"/>
<text x="975" y="140" font-family="Arial, sans-serif" font-size="9" fill="#333">0.582</text>
<text x="56" y="147" font-family="Arial, sans-serif" font-size="9" fill="#333"> 6. V3 V_H</text>
<rect x="245" y="139" width="416.2" height="10" rx="1" fill="#4c78a8" opacity="0.82"/>
<text x="975" y="147" font-family="Arial, sans-serif" font-size="9" fill="#333">0.578</text>
<text x="56" y="154" font-family="Arial, sans-serif" font-size="9" fill="#333"> 7. U4 U_L</text>
<rect x="245" y="146" width="410.8" height="10" rx="1" fill="#4c78a8" opacity="0.82"/>
<text x="975" y="154" font-family="Arial, sans-serif" font-size="9" fill="#333">0.571</text>
<text x="56" y="161" font-family="Arial, sans-serif" font-size="9" fill="#333"> 8. W6 W_L</text>
<rect x="245" y="153" width="405.7" height="10" rx="1" fill="#4c78a8" opacity="0.82"/>
<text x="975" y="161" font-family="Arial, sans-serif" font-size="9" fill="#333">0.563</text>
<text x="56" y="168" font-family="Arial, sans-serif" font-size="9" fill="#333"> 9. V2 V_H</text>
<rect x="245" y="160" width="400.7" height="10" rx="1" fill="#4c78a8" opacity="0.82"/>
<text x="975" y="168" font-family="Arial, sans-serif" font-size="9" fill="#333">0.557</text>
<text x="56" y="175" font-family="Arial, sans-serif" font-size="9" fill="#333">10. V1 V_H</text>
<rect x="245" y="167" width="394.3" height="10" rx="1" fill="#4c78a8" opacity="0.82"/>
<text x="975" y="175" font-family="Arial, sans-serif" font-size="9" fill="#333">0.548</text>
<text x="56" y="182" font-family="Arial, sans-serif" font-size="9" fill="#333">11. U3 U_H</text>
<rect x="245" y="174" width="390.7" height="10" rx="1" fill="#4c78a8" opacity="0.82"/>
<text x="975" y="182" font-family="Arial, sans-serif" font-size="9" fill="#333">0.543</text>
<text x="56" y="189" font-family="Arial, sans-serif" font-size="9" fill="#333">12. W2 W_H</text>
<rect x="245" y="181" width="389.8" height="10" rx="1" fill="#4c78a8" opacity="0.82"/>
<text x="975" y="189" font-family="Arial, sans-serif" font-size="9" fill="#333">0.541</text>
<text x="56" y="196" font-family="Arial, sans-serif" font-size="9" fill="#333">13. W3 W_H</text>
<rect x="245" y="188" width="380.9" height="10" rx="1" fill="#4c78a8" opacity="0.82"/>
<text x="975" y="196" font-family="Arial, sans-serif" font-size="9" fill="#333">0.529</text>
<text x="56" y="203" font-family="Arial, sans-serif" font-size="9" fill="#333">14. W4 W_L</text>
<rect x="245" y="195" width="377.5" height="10" rx="1" fill="#4c78a8" opacity="0.82"/>
<text x="975" y="203" font-family="Arial, sans-serif" font-size="9" fill="#333">0.524</text>
<text x="56" y="210" font-family="Arial, sans-serif" font-size="9" fill="#333">15. U6 U_L</text>
<rect x="245" y="202" width="375.0" height="10" rx="1" fill="#4c78a8" opacity="0.82"/>
<text x="975" y="210" font-family="Arial, sans-serif" font-size="9" fill="#333">0.521</text>
<text x="56" y="217" font-family="Arial, sans-serif" font-size="9" fill="#333">16. V6 V_L</text>
<rect x="245" y="209" width="374.5" height="10" rx="1" fill="#4c78a8" opacity="0.82"/>
<text x="975" y="217" font-family="Arial, sans-serif" font-size="9" fill="#333">0.520</text>
<text x="56" y="224" font-family="Arial, sans-serif" font-size="9" fill="#333">17. U2 U_H</text>
<rect x="245" y="216" width="372.4" height="10" rx="1" fill="#4c78a8" opacity="0.82"/>
<text x="975" y="224" font-family="Arial, sans-serif" font-size="9" fill="#333">0.517</text>
<text x="56" y="231" font-family="Arial, sans-serif" font-size="9" fill="#333">18. V5 V_L</text>
<rect x="245" y="223" width="363.4" height="10" rx="1" fill="#4c78a8" opacity="0.82"/>
<text x="975" y="231" font-family="Arial, sans-serif" font-size="9" fill="#333">0.505</text>
<line x1="30" y1="234" x2="1120" y2="234" stroke="#e6e6e6"/>
<text x="30" y="258" font-family="Arial, sans-serif" font-size="15" font-weight="700">21201308</text>
<text x="56" y="282" font-family="Arial, sans-serif" font-size="9" fill="#333"> 1. V6 V_L</text>
<rect x="245" y="274" width="512.7" height="10" rx="1" fill="#4c78a8" opacity="0.82"/>
<text x="975" y="282" font-family="Arial, sans-serif" font-size="9" fill="#333">0.712</text>
<text x="56" y="289" font-family="Arial, sans-serif" font-size="9" fill="#333"> 2. V4 V_L</text>
<rect x="245" y="281" width="444.3" height="10" rx="1" fill="#4c78a8" opacity="0.82"/>
<text x="975" y="289" font-family="Arial, sans-serif" font-size="9" fill="#333">0.617</text>
<text x="56" y="296" font-family="Arial, sans-serif" font-size="9" fill="#333"> 3. U3 U_H</text>
<rect x="245" y="288" width="429.3" height="10" rx="1" fill="#4c78a8" opacity="0.82"/>
<text x="975" y="296" font-family="Arial, sans-serif" font-size="9" fill="#333">0.596</text>
<text x="56" y="303" font-family="Arial, sans-serif" font-size="9" fill="#333"> 4. U4 U_L</text>
<rect x="245" y="295" width="427.1" height="10" rx="1" fill="#4c78a8" opacity="0.82"/>
<text x="975" y="303" font-family="Arial, sans-serif" font-size="9" fill="#333">0.593</text>
<text x="56" y="310" font-family="Arial, sans-serif" font-size="9" fill="#333"> 5. V2 V_H</text>
<rect x="245" y="302" width="419.5" height="10" rx="1" fill="#4c78a8" opacity="0.82"/>
<text x="975" y="310" font-family="Arial, sans-serif" font-size="9" fill="#333">0.583</text>
<text x="56" y="317" font-family="Arial, sans-serif" font-size="9" fill="#333"> 6. W1 W_H</text>
<rect x="245" y="309" width="417.1" height="10" rx="1" fill="#4c78a8" opacity="0.82"/>
<text x="975" y="317" font-family="Arial, sans-serif" font-size="9" fill="#333">0.579</text>
<text x="56" y="324" font-family="Arial, sans-serif" font-size="9" fill="#333"> 7. V5 V_L</text>
<rect x="245" y="316" width="402.2" height="10" rx="1" fill="#4c78a8" opacity="0.82"/>
<text x="975" y="324" font-family="Arial, sans-serif" font-size="9" fill="#333">0.559</text>
<text x="56" y="331" font-family="Arial, sans-serif" font-size="9" fill="#333"> 8. U5 U_L</text>
<rect x="245" y="323" width="401.2" height="10" rx="1" fill="#4c78a8" opacity="0.82"/>
<text x="975" y="331" font-family="Arial, sans-serif" font-size="9" fill="#333">0.557</text>
<text x="56" y="338" font-family="Arial, sans-serif" font-size="9" fill="#333"> 9. W4 W_L</text>
<rect x="245" y="330" width="400.1" height="10" rx="1" fill="#4c78a8" opacity="0.82"/>
<text x="975" y="338" font-family="Arial, sans-serif" font-size="9" fill="#333">0.556</text>
<text x="56" y="345" font-family="Arial, sans-serif" font-size="9" fill="#333">10. V1 V_H</text>
<rect x="245" y="337" width="399.4" height="10" rx="1" fill="#4c78a8" opacity="0.82"/>
<text x="975" y="345" font-family="Arial, sans-serif" font-size="9" fill="#333">0.555</text>
<text x="56" y="352" font-family="Arial, sans-serif" font-size="9" fill="#333">11. W5 W_L</text>
<rect x="245" y="344" width="386.4" height="10" rx="1" fill="#4c78a8" opacity="0.82"/>
<text x="975" y="352" font-family="Arial, sans-serif" font-size="9" fill="#333">0.537</text>
<text x="56" y="359" font-family="Arial, sans-serif" font-size="9" fill="#333">12. U1 U_H</text>
<rect x="245" y="351" width="382.1" height="10" rx="1" fill="#d55e00" opacity="0.82"/>
<text x="975" y="359" font-family="Arial, sans-serif" font-size="9" fill="#333">0.531</text>
<text x="56" y="366" font-family="Arial, sans-serif" font-size="9" fill="#333">13. U6 U_L</text>
<rect x="245" y="358" width="380.6" height="10" rx="1" fill="#4c78a8" opacity="0.82"/>
<text x="975" y="366" font-family="Arial, sans-serif" font-size="9" fill="#333">0.529</text>
<text x="56" y="373" font-family="Arial, sans-serif" font-size="9" fill="#333">14. V3 V_H</text>
<rect x="245" y="365" width="377.2" height="10" rx="1" fill="#4c78a8" opacity="0.82"/>
<text x="975" y="373" font-family="Arial, sans-serif" font-size="9" fill="#333">0.524</text>
<text x="56" y="380" font-family="Arial, sans-serif" font-size="9" fill="#333">15. W6 W_L</text>
<rect x="245" y="372" width="374.8" height="10" rx="1" fill="#4c78a8" opacity="0.82"/>
<text x="975" y="380" font-family="Arial, sans-serif" font-size="9" fill="#333">0.521</text>
<text x="56" y="387" font-family="Arial, sans-serif" font-size="9" fill="#333">16. W2 W_H</text>
<rect x="245" y="379" width="373.0" height="10" rx="1" fill="#4c78a8" opacity="0.82"/>
<text x="975" y="387" font-family="Arial, sans-serif" font-size="9" fill="#333">0.518</text>
<text x="56" y="394" font-family="Arial, sans-serif" font-size="9" fill="#333">17. W3 W_H</text>
<rect x="245" y="386" width="371.5" height="10" rx="1" fill="#4c78a8" opacity="0.82"/>
<text x="975" y="394" font-family="Arial, sans-serif" font-size="9" fill="#333">0.516</text>
<text x="56" y="401" font-family="Arial, sans-serif" font-size="9" fill="#333">18. U2 U_H</text>
<rect x="245" y="393" width="352.9" height="10" rx="1" fill="#4c78a8" opacity="0.82"/>
<text x="975" y="401" font-family="Arial, sans-serif" font-size="9" fill="#333">0.490</text>
<line x1="30" y1="404" x2="1120" y2="404" stroke="#e6e6e6"/>
<text x="30" y="428" font-family="Arial, sans-serif" font-size="15" font-weight="700">21800896</text>
<text x="56" y="452" font-family="Arial, sans-serif" font-size="9" fill="#333"> 1. V4 V_L</text>
<rect x="245" y="444" width="471.5" height="10" rx="1" fill="#4c78a8" opacity="0.82"/>
<text x="975" y="452" font-family="Arial, sans-serif" font-size="9" fill="#333">0.655</text>
<text x="56" y="459" font-family="Arial, sans-serif" font-size="9" fill="#333"> 2. V3 V_H</text>
<rect x="245" y="451" width="459.1" height="10" rx="1" fill="#4c78a8" opacity="0.82"/>
<text x="975" y="459" font-family="Arial, sans-serif" font-size="9" fill="#333">0.638</text>
<text x="56" y="466" font-family="Arial, sans-serif" font-size="9" fill="#333"> 3. U3 U_H</text>
<rect x="245" y="458" width="426.0" height="10" rx="1" fill="#4c78a8" opacity="0.82"/>
<text x="975" y="466" font-family="Arial, sans-serif" font-size="9" fill="#333">0.592</text>
<text x="56" y="473" font-family="Arial, sans-serif" font-size="9" fill="#333"> 4. U4 U_L</text>
<rect x="245" y="465" width="418.7" height="10" rx="1" fill="#4c78a8" opacity="0.82"/>
<text x="975" y="473" font-family="Arial, sans-serif" font-size="9" fill="#333">0.582</text>
<text x="56" y="480" font-family="Arial, sans-serif" font-size="9" fill="#333"> 5. W1 W_H</text>
<rect x="245" y="472" width="410.4" height="10" rx="1" fill="#4c78a8" opacity="0.82"/>
<text x="975" y="480" font-family="Arial, sans-serif" font-size="9" fill="#333">0.570</text>
<text x="56" y="487" font-family="Arial, sans-serif" font-size="9" fill="#333"> 6. W4 W_L</text>
<rect x="245" y="479" width="403.2" height="10" rx="1" fill="#4c78a8" opacity="0.82"/>
<text x="975" y="487" font-family="Arial, sans-serif" font-size="9" fill="#333">0.560</text>
<text x="56" y="494" font-family="Arial, sans-serif" font-size="9" fill="#333"> 7. U1 U_H</text>
<rect x="245" y="486" width="401.9" height="10" rx="1" fill="#4c78a8" opacity="0.82"/>
<text x="975" y="494" font-family="Arial, sans-serif" font-size="9" fill="#333">0.558</text>
<text x="56" y="501" font-family="Arial, sans-serif" font-size="9" fill="#333"> 8. U6 U_L</text>
<rect x="245" y="493" width="392.2" height="10" rx="1" fill="#4c78a8" opacity="0.82"/>
<text x="975" y="501" font-family="Arial, sans-serif" font-size="9" fill="#333">0.545</text>
<text x="56" y="508" font-family="Arial, sans-serif" font-size="9" fill="#333"> 9. V1 V_H</text>
<rect x="245" y="500" width="390.4" height="10" rx="1" fill="#4c78a8" opacity="0.82"/>
<text x="975" y="508" font-family="Arial, sans-serif" font-size="9" fill="#333">0.542</text>
<text x="56" y="515" font-family="Arial, sans-serif" font-size="9" fill="#333">10. V5 V_L</text>
<rect x="245" y="507" width="388.2" height="10" rx="1" fill="#4c78a8" opacity="0.82"/>
<text x="975" y="515" font-family="Arial, sans-serif" font-size="9" fill="#333">0.539</text>
<text x="56" y="522" font-family="Arial, sans-serif" font-size="9" fill="#333">11. W2 W_H</text>
<rect x="245" y="514" width="366.4" height="10" rx="1" fill="#4c78a8" opacity="0.82"/>
<text x="975" y="522" font-family="Arial, sans-serif" font-size="9" fill="#333">0.509</text>
<text x="56" y="529" font-family="Arial, sans-serif" font-size="9" fill="#333">12. W3 W_H</text>
<rect x="245" y="521" width="365.4" height="10" rx="1" fill="#d55e00" opacity="0.82"/>
<text x="975" y="529" font-family="Arial, sans-serif" font-size="9" fill="#333">0.507</text>
<text x="56" y="536" font-family="Arial, sans-serif" font-size="9" fill="#333">13. U2 U_H</text>
<rect x="245" y="528" width="362.0" height="10" rx="1" fill="#4c78a8" opacity="0.82"/>
<text x="975" y="536" font-family="Arial, sans-serif" font-size="9" fill="#333">0.503</text>
<text x="56" y="543" font-family="Arial, sans-serif" font-size="9" fill="#333">14. W5 W_L</text>
<rect x="245" y="535" width="361.4" height="10" rx="1" fill="#4c78a8" opacity="0.82"/>
<text x="975" y="543" font-family="Arial, sans-serif" font-size="9" fill="#333">0.502</text>
<text x="56" y="550" font-family="Arial, sans-serif" font-size="9" fill="#333">15. V6 V_L</text>
<rect x="245" y="542" width="359.7" height="10" rx="1" fill="#4c78a8" opacity="0.82"/>
<text x="975" y="550" font-family="Arial, sans-serif" font-size="9" fill="#333">0.500</text>
<text x="56" y="557" font-family="Arial, sans-serif" font-size="9" fill="#333">16. U5 U_L</text>
<rect x="245" y="549" width="357.4" height="10" rx="1" fill="#4c78a8" opacity="0.82"/>
<text x="975" y="557" font-family="Arial, sans-serif" font-size="9" fill="#333">0.496</text>
<text x="56" y="564" font-family="Arial, sans-serif" font-size="9" fill="#333">17. W6 W_L</text>
<rect x="245" y="556" width="349.1" height="10" rx="1" fill="#4c78a8" opacity="0.82"/>
<text x="975" y="564" font-family="Arial, sans-serif" font-size="9" fill="#333">0.485</text>
<text x="56" y="571" font-family="Arial, sans-serif" font-size="9" fill="#333">18. V2 V_H</text>
<rect x="245" y="563" width="344.9" height="10" rx="1" fill="#4c78a8" opacity="0.82"/>
<text x="975" y="571" font-family="Arial, sans-serif" font-size="9" fill="#333">0.479</text>
<line x1="30" y1="574" x2="1120" y2="574" stroke="#e6e6e6"/>
<text x="30" y="598" font-family="Arial, sans-serif" font-size="15" font-weight="700">22002764</text>
<text x="56" y="622" font-family="Arial, sans-serif" font-size="9" fill="#333"> 1. U6 U_L</text>
<rect x="245" y="614" width="437.7" height="10" rx="1" fill="#4c78a8" opacity="0.82"/>
<text x="975" y="622" font-family="Arial, sans-serif" font-size="9" fill="#333">0.608</text>
<text x="56" y="629" font-family="Arial, sans-serif" font-size="9" fill="#333"> 2. V3 V_H</text>
<rect x="245" y="621" width="436.1" height="10" rx="1" fill="#4c78a8" opacity="0.82"/>
<text x="975" y="629" font-family="Arial, sans-serif" font-size="9" fill="#333">0.606</text>
<text x="56" y="636" font-family="Arial, sans-serif" font-size="9" fill="#333"> 3. W1 W_H</text>
<rect x="245" y="628" width="427.4" height="10" rx="1" fill="#4c78a8" opacity="0.82"/>
<text x="975" y="636" font-family="Arial, sans-serif" font-size="9" fill="#333">0.594</text>
<text x="56" y="643" font-family="Arial, sans-serif" font-size="9" fill="#333"> 4. V6 V_L</text>
<rect x="245" y="635" width="413.9" height="10" rx="1" fill="#4c78a8" opacity="0.82"/>
<text x="975" y="643" font-family="Arial, sans-serif" font-size="9" fill="#333">0.575</text>
<text x="56" y="650" font-family="Arial, sans-serif" font-size="9" fill="#333"> 5. W5 W_L</text>
<rect x="245" y="642" width="400.5" height="10" rx="1" fill="#4c78a8" opacity="0.82"/>
<text x="975" y="650" font-family="Arial, sans-serif" font-size="9" fill="#333">0.556</text>
<text x="56" y="657" font-family="Arial, sans-serif" font-size="9" fill="#333"> 6. U3 U_H</text>
<rect x="245" y="649" width="393.2" height="10" rx="1" fill="#4c78a8" opacity="0.82"/>
<text x="975" y="657" font-family="Arial, sans-serif" font-size="9" fill="#333">0.546</text>
<text x="56" y="664" font-family="Arial, sans-serif" font-size="9" fill="#333"> 7. W6 W_L</text>
<rect x="245" y="656" width="391.4" height="10" rx="1" fill="#4c78a8" opacity="0.82"/>
<text x="975" y="664" font-family="Arial, sans-serif" font-size="9" fill="#333">0.544</text>
<text x="56" y="671" font-family="Arial, sans-serif" font-size="9" fill="#333"> 8. U5 U_L</text>
<rect x="245" y="663" width="386.5" height="10" rx="1" fill="#4c78a8" opacity="0.82"/>
<text x="975" y="671" font-family="Arial, sans-serif" font-size="9" fill="#333">0.537</text>
<text x="56" y="678" font-family="Arial, sans-serif" font-size="9" fill="#333"> 9. U2 U_H</text>
<rect x="245" y="670" width="385.1" height="10" rx="1" fill="#4c78a8" opacity="0.82"/>
<text x="975" y="678" font-family="Arial, sans-serif" font-size="9" fill="#333">0.535</text>
<text x="56" y="685" font-family="Arial, sans-serif" font-size="9" fill="#333">10. W4 W_L</text>
<rect x="245" y="677" width="379.8" height="10" rx="1" fill="#4c78a8" opacity="0.82"/>
<text x="975" y="685" font-family="Arial, sans-serif" font-size="9" fill="#333">0.528</text>
<text x="56" y="692" font-family="Arial, sans-serif" font-size="9" fill="#333">11. V4 V_L</text>
<rect x="245" y="684" width="377.2" height="10" rx="1" fill="#4c78a8" opacity="0.82"/>
<text x="975" y="692" font-family="Arial, sans-serif" font-size="9" fill="#333">0.524</text>
<text x="56" y="699" font-family="Arial, sans-serif" font-size="9" fill="#333">12. W3 W_H</text>
<rect x="245" y="691" width="375.8" height="10" rx="1" fill="#4c78a8" opacity="0.82"/>
<text x="975" y="699" font-family="Arial, sans-serif" font-size="9" fill="#333">0.522</text>
<text x="56" y="706" font-family="Arial, sans-serif" font-size="9" fill="#333">13. U1 U_H</text>
<rect x="245" y="698" width="374.6" height="10" rx="1" fill="#d55e00" opacity="0.82"/>
<text x="975" y="706" font-family="Arial, sans-serif" font-size="9" fill="#333">0.520</text>
<text x="56" y="713" font-family="Arial, sans-serif" font-size="9" fill="#333">14. V1 V_H</text>
<rect x="245" y="705" width="374.5" height="10" rx="1" fill="#4c78a8" opacity="0.82"/>
<text x="975" y="713" font-family="Arial, sans-serif" font-size="9" fill="#333">0.520</text>
<text x="56" y="720" font-family="Arial, sans-serif" font-size="9" fill="#333">15. U4 U_L</text>
<rect x="245" y="712" width="366.1" height="10" rx="1" fill="#4c78a8" opacity="0.82"/>
<text x="975" y="720" font-family="Arial, sans-serif" font-size="9" fill="#333">0.509</text>
<text x="56" y="727" font-family="Arial, sans-serif" font-size="9" fill="#333">16. V2 V_H</text>
<rect x="245" y="719" width="356.2" height="10" rx="1" fill="#4c78a8" opacity="0.82"/>
<text x="975" y="727" font-family="Arial, sans-serif" font-size="9" fill="#333">0.495</text>
<text x="56" y="734" font-family="Arial, sans-serif" font-size="9" fill="#333">17. W2 W_H</text>
<rect x="245" y="726" width="354.8" height="10" rx="1" fill="#4c78a8" opacity="0.82"/>
<text x="975" y="734" font-family="Arial, sans-serif" font-size="9" fill="#333">0.493</text>
<text x="56" y="741" font-family="Arial, sans-serif" font-size="9" fill="#333">18. V5 V_L</text>
<rect x="245" y="733" width="353.6" height="10" rx="1" fill="#4c78a8" opacity="0.82"/>
<text x="975" y="741" font-family="Arial, sans-serif" font-size="9" fill="#333">0.491</text>
<line x1="30" y1="744" x2="1120" y2="744" stroke="#e6e6e6"/>
</svg>